<svg width="224" height="224" viewBox="0 0 6.72 6.72" fill="none" xmlns="http://www.w3.org/2000/svg"><path d="M2.52 2.24a.28.28 0 1 1-.56 0 .28.28 0 0 1 .56 0m-1.12 0a.28.28 0 1 1-.56 0 .28.28 0 0 1 .56 0m1.12-1.12a.28.28 0 1 1-.56 0 .28.28 0 0 1 .56 0m-1.4.28a.28.28 0 1 0 0-.56.28.28 0 0 0 0 .56" fill="#0F0F0F"/><path fill-rule="evenodd" clip-rule="evenodd" d="M2.52 0a.84.84 0 0 1 .84.84v1.68a.84.84 0 0 1-.84.84H.84A.84.84 0 0 1 0 2.52V.84A.84.84 0 0 1 .84 0zm0 .56a.28.28 0 0 1 .28.28v1.68a.28.28 0 0 1-.28.28H.84a.28.28 0 0 1-.28-.28V.84A.28.28 0 0 1 .84.56z" fill="#0F0F0F"/><path d="M4.48 5.88a.28.28 0 1 0 0-.56.28.28 0 0 0 0 .56M5.6 4.76a.28.28 0 1 0 0-.56.28.28 0 0 0 0 .56" fill="#0F0F0F"/><path fill-rule="evenodd" clip-rule="evenodd" d="M5.88 3.36a.84.84 0 0 1 .84.84v1.68a.84.84 0 0 1-.84.84H4.2a.84.84 0 0 1-.84-.84V4.2a.84.84 0 0 1 .84-.84zm0 .56a.28.28 0 0 1 .28.28v1.68a.28.28 0 0 1-.28.28H4.2a.28.28 0 0 1-.28-.28V4.2a.28.28 0 0 1 .28-.28z" fill="#0F0F0F"/></svg>