<svg width="240" height="240" viewBox="0 0 19.2 19.2" xmlns="http://www.w3.org/2000/svg"><g data-name="08_Exam"><path d="M16.79 0.6h-12a2.4 2.4 0 0 0 -2.4 2.4v13.2h12.6V2.55Z" style="fill:#fdfeff"/><path d="M17.99 3.6h-3V2.456a1.834 1.834 0 0 1 1.397 -1.811A1.803 1.803 0 0 1 18.59 2.4v0.6a0.6 0.6 0 0 1 -0.6 0.6" style="fill:#0455bf"/><path d="M17.252 0.658A1.796 1.796 0 0 0 15 2.456V3.6h0.9V2.456a1.836 1.836 0 0 1 1.352 -1.797" style="fill:#004787"/><path d="M13.19 18.6h-10.2a2.4 2.4 0 0 1 -2.4 -2.4 0.6 0.6 0 0 1 0.6 -0.6h9.6a0.6 0.6 0 0 1 0.6 0.6v0.45Z" style="fill:#0455bf"/><path d="M3.9 17.7a2.4 2.4 0 0 1 -2.379 -2.1H1.2a0.6 0.6 0 0 0 -0.6 0.6 2.4 2.4 0 0 0 2.4 2.4h10.2l-0.831 -0.9Z" style="fill:#004787"/><path d="M14.99 16.8a1.803 1.803 0 0 1 -2.203 1.756 1.834 1.834 0 0 1 -1.397 -1.811V15.6h3.6Z" style="fill:#fdfeff"/><path d="M3.3 3.6v2.4a0.3 0.3 0 0 0 0.3 0.3h1.5v-0.6h-1.2v-0.6h1.2v-0.6h-1.2v-0.6h1.2v-0.6h-1.5a0.3 0.3 0 0 0 -0.3 0.3m3.6 0.476 -0.3 0.3 -0.3 -0.3V3.3h-0.6v0.9a0.3 0.3 0 0 0 0.088 0.212L6.176 4.8l-0.388 0.388A0.3 0.3 0 0 0 5.7 5.4v0.9h0.6v-0.776l0.3 -0.3 0.3 0.3V6.3h0.6v-0.9a0.3 0.3 0 0 0 -0.088 -0.212L7.024 4.8l0.388 -0.388A0.3 0.3 0 0 0 7.5 4.2v-0.9h-0.6ZM9 3.3a0.9 0.9 0 0 0 -0.9 0.9v2.1h0.6v-0.9h0.6v0.9h0.6v-2.1a0.9 0.9 0 0 0 -0.9 -0.9m-0.3 1.5v-0.6a0.3 0.3 0 0 1 0.6 0v0.6Zm3.9 -1.5a0.894 0.894 0 0 0 -0.6 0.234A0.896 0.896 0 0 0 10.5 4.2v2.1h0.6v-2.1a0.3 0.3 0 0 1 0.6 0v1.2h0.6v-1.2a0.3 0.3 0 0 1 0.6 0v2.1h0.6v-2.1a0.9 0.9 0 0 0 -0.9 -0.9" style="fill:#dfeaef"/><path d="M3.6 3.3v2.4a0.3 0.3 0 0 0 0.3 0.3h1.5v-0.6h-1.2v-0.6h1.2v-0.6h-1.2v-0.6h1.2v-0.6h-1.5a0.3 0.3 0 0 0 -0.3 0.3m3.6 0.476 -0.3 0.3 -0.3 -0.3V3h-0.6v0.9a0.3 0.3 0 0 0 0.088 0.212L6.476 4.5l-0.388 0.388A0.3 0.3 0 0 0 6 5.1v0.9h0.6v-0.776l0.3 -0.3 0.3 0.3V6h0.6v-0.9a0.3 0.3 0 0 0 -0.088 -0.212L7.324 4.5l0.388 -0.388A0.3 0.3 0 0 0 7.8 3.9v-0.9h-0.6ZM9.3 3a0.9 0.9 0 0 0 -0.9 0.9v2.1h0.6v-0.9h0.6v0.9h0.6v-2.1a0.9 0.9 0 0 0 -0.9 -0.9m-0.3 1.5v-0.6a0.3 0.3 0 0 1 0.6 0v0.6Zm3.9 -1.5a0.894 0.894 0 0 0 -0.6 0.234A0.896 0.896 0 0 0 10.8 3.9v2.1h0.6v-2.1a0.3 0.3 0 0 1 0.6 0v1.2h0.6v-1.2a0.3 0.3 0 0 1 0.6 0v2.1h0.6v-2.1a0.9 0.9 0 0 0 -0.9 -0.9" style="fill:#0455bf"/><path d="M5.4 9.3h-1.5a0.3 0.3 0 0 1 -0.3 -0.3v-1.2a0.3 0.3 0 0 1 0.3 -0.3h1.5a0.3 0.3 0 0 1 0.3 0.3v1.2a0.3 0.3 0 0 1 -0.3 0.3m-1.2 -0.6h0.9v-0.6h-0.9Zm1.2 3.3h-1.5a0.3 0.3 0 0 1 -0.3 -0.3v-1.2a0.3 0.3 0 0 1 0.3 -0.3h1.5a0.3 0.3 0 0 1 0.3 0.3v1.2a0.3 0.3 0 0 1 -0.3 0.3m-1.2 -0.6h0.9v-0.6h-0.9Zm1.2 3.3h-1.5a0.3 0.3 0 0 1 -0.3 -0.3v-1.2a0.3 0.3 0 0 1 0.3 -0.3h1.5a0.3 0.3 0 0 1 0.3 0.3v1.2a0.3 0.3 0 0 1 -0.3 0.3m-1.2 -0.6h0.9v-0.6h-0.9Z" style="fill:#febc00"/><path style="fill:#0455bf" d="M6.3 8.1h3.3v0.6H6.3zm0 2.7h3.6v0.6H6.3zm0 2.7h3.3v0.6H6.3zm5.1 -5.4h0.6v0.6h-0.6zm-1.2 0h0.6v0.6h-0.6z"/><path style="fill:#dfeaef" d="M14.459 7.818 10.92 11.357l-0.221 1.106 -0.145 0.587 0.587 -0.145 1.106 -0.221L15 9.931v-2.654z"/><path d="m16.218 8.103 -1.327 -1.327 0.443 -0.442a0.625 0.625 0 0 1 0.885 0l0.443 0.442a0.626 0.626 0 0 1 0 0.885Z" style="fill:#f74e0c"/><path d="m16.44 6.554 -0.221 -0.221a0.625 0.625 0 0 0 -0.885 0l-0.443 0.442 0.221 0.221 0.442 -0.443a0.626 0.626 0 0 1 0.885 0" style="fill:#cc2600"/><path style="fill:#f74e0c" transform="rotate(-45 44.476 32.17)" d="M10.84 8.713h5.005v1.877H10.84z"/><path style="fill:#febc00" transform="rotate(-45 44.476 32.17)" d="M10.84 9.338h5.005v0.625H10.84z"/><path style="fill:#f74e0c" transform="rotate(-45 43.001 30.695)" d="M10.398 8.896h5.005v0.625H10.398z"/><path style="fill:#dfeaef" transform="rotate(-45 51.48 25.166)" d="M14.975 6.611h0.938v1.877h-0.938z"/><path d="M15.334 7.66a0.625 0.625 0 0 1 0 -0.885l-0.221 -0.221 -0.664 0.664 1.327 1.327 0.221 -0.221Z" style="fill:#c3d6dd"/><path style="fill:#f7d694" d="m11.131 12.305 -0.442 -0.443 0.221 -1.106 1.327 1.327z"/><path style="fill:#f74e0c" d="m10.689 11.863 -0.145 0.587 0.587 -0.145z"/></g></svg>