<?xml version="1.0" encoding="UTF-8"?>
<svg version="1.1" xmlns="http://www.w3.org/2000/svg" width="512" height="512">
<path d="M0 0 C1.00589172 0.00506058 1.00589172 0.00506058 2.03210449 0.01022339 C39.06226142 0.27839095 72.20016519 16.0112698 98.07861328 42.16235352 C127.91425192 73.44951555 140.01277359 116.03964335 147.8125 157.4375 C148.75609375 156.84582031 149.6996875 156.25414062 150.671875 155.64453125 C164.33281302 147.19005966 178.26187629 139.12737526 194.8125 142.4375 C201.45945225 144.47465699 206.01661124 148.69549569 209.8125 154.4375 C216.00124166 166.81498332 215.72754156 179.63449733 211.84375 192.6953125 C204.26966377 213.93345969 188.14609898 231.56529189 173 247.875 C172.49251221 248.42260986 171.98502441 248.97021973 171.4621582 249.53442383 C170.93195068 250.0992749 170.40174316 250.66412598 169.85546875 251.24609375 C169.27394043 251.87700928 168.69241211 252.5079248 168.09326172 253.15795898 C166.22853477 255.0216879 164.34928158 256.68633919 162.33251953 258.37524414 C154.60359213 265.06939261 150.42028183 270.1835029 149.59359741 280.54293823 C149.50680982 282.17574437 149.43955803 283.80968905 149.39041138 285.44406128 C149.28182393 289.00635055 149.02519935 292.55444918 148.78053284 296.10957336 C148.65267312 297.9900228 148.53217962 299.87098662 148.41880798 301.75236511 C147.75389243 312.5260365 146.34490464 323.18609715 144.875 333.875 C144.68154999 335.2990918 144.68154999 335.2990918 144.48419189 336.75195312 C142.92301016 348.20209267 141.26641457 359.6311666 139.1875 371 C139.00582275 372.03374756 138.82414551 373.06749512 138.63696289 374.13256836 C137.88604085 377.96037434 137.25725029 380.78800784 135.0390625 384.02734375 C132.8125 385.4375 132.8125 385.4375 126.8125 386.4375 C126.1525 390.3975 125.4925 394.3575 124.8125 398.4375 C126.1325 398.7675 127.4525 399.0975 128.8125 399.4375 C131.98345755 404.19393633 131.27562547 408.95567533 130.26416016 414.37597656 C129.43845051 417.95278831 128.54138682 421.5081958 127.625 425.0625 C126.89298927 427.96478963 126.16906265 430.86907832 125.4453125 433.7734375 C125.14493324 434.97311157 125.14493324 434.97311157 124.83848572 436.19702148 C122.97841337 443.66808159 121.23079208 451.16393401 119.4921875 458.6640625 C118.9104504 461.16456242 118.32866306 463.66505065 117.74682617 466.16552734 C116.87338281 469.92083774 116.00249225 473.67664726 115.13955688 477.43438721 C114.32353249 480.98417138 113.49678112 484.53130819 112.66796875 488.078125 C112.3026857 489.68707138 112.3026857 489.68707138 111.93002319 491.32852173 C111.69554474 492.32386932 111.46106628 493.31921692 111.21948242 494.34472656 C111.01933029 495.21115784 110.81917816 496.07758911 110.61296082 496.97027588 C109.69359775 499.80398701 108.53300113 502.00608619 106.8125 504.4375 C101.96825676 506.66585189 98.16195548 506.67884843 93.140625 505.3125 C82.23363686 501.21322929 77.33031474 492.75942415 71.6875 483.125 C69.09968875 478.72433701 66.5018572 474.7821786 61.8125 472.4375 C56.4789903 471.5041358 52.91484807 473.49017163 48.53125 476.26953125 C43.15121267 480.55964722 39.0578984 486.06114122 34.8125 491.4375 C25.74908788 502.77608965 14.3034153 509.96603675 -0.1875 512.4375 C-4.20586372 512.67981339 -8.22502587 512.66857008 -12.25 512.6875 C-13.31927734 512.708125 -14.38855469 512.72875 -15.49023438 512.75 C-32.70806631 512.83322819 -46.27716588 506.96921642 -58.5078125 495.12109375 C-60.66334822 492.96241585 -62.77463797 490.77417154 -64.875 488.5625 C-70.35681968 482.97319366 -77.32839261 479.40780879 -85.1875 479.125 C-98.57537188 479.38622677 -110.39867871 487.6673128 -121.453125 494.4375 C-134.80012086 502.5435289 -148.0137963 505.9898195 -163.50390625 502.7421875 C-173.56686599 499.41119387 -181.42379044 492.91273905 -186.375 483.5 C-192.13717201 471.13921166 -192.31695192 457.79598584 -188.40625 444.8515625 C-185.4624176 436.80677914 -180.61306541 429.92751523 -175.7578125 422.93359375 C-169.92918108 414.48470068 -165.04031497 405.97311448 -161.1875 396.4375 C-160.67171387 395.16712891 -160.67171387 395.16712891 -160.14550781 393.87109375 C-142.1235494 348.63327404 -136.47813799 298.60250783 -133.375 250.32788086 C-133.21057157 247.79315661 -132.99671175 245.26825754 -132.7734375 242.73828125 C-132.38993355 235.48721585 -132.1391651 230.64778352 -137.0625 224.875 C-137.88105469 224.02292969 -138.69960937 223.17085937 -139.54296875 222.29296875 C-152.4848623 208.31878236 -159.58318858 190.07687321 -159.3984375 171.1953125 C-158.86726087 161.73249924 -155.3718977 153.53486944 -148.55859375 146.8359375 C-144.30712811 143.46238472 -139.59592505 141.80625625 -134.1875 141.4375 C-131.84779706 141.72271172 -129.51214706 142.04817804 -127.1875 142.4375 C-127.15011719 141.15359375 -127.11273438 139.8696875 -127.07421875 138.546875 C-125.74295116 100.11248278 -116.1949035 66.31688671 -90.1875 37.4375 C-89.59453125 36.77234375 -89.0015625 36.1071875 -88.390625 35.421875 C-79.82532011 26.34774012 -65.97322378 13.99111889 -53.08203125 13.24609375 C-50.4741419 13.50957123 -49.17090662 14.79606004 -47.1875 16.4375 C-44.24022465 16.33580839 -44.24022465 16.33580839 -41.1875 15.4375 C-40.115 15.23125 -39.0425 15.025 -37.9375 14.8125 C-34.81267228 13.65077233 -34.81267228 13.65077233 -34 10 C-33.731875 8.824375 -33.46375 7.64875 -33.1875 6.4375 C-30.38021474 2.4143514 -25.98002148 2.25780685 -21.43913269 1.39573669 C-14.30809923 0.13871015 -7.23303012 -0.05806541 0 0 Z M154.8125 175.4375 C153.9153125 175.99759766 153.018125 176.55769531 152.09375 177.13476562 C149.47591211 179.28728909 149.47591211 179.28728909 149.52319336 182.70092773 C149.64650143 184.03091686 149.79576464 185.35864537 149.96484375 186.68359375 C150.10753246 188.21554082 150.24509539 189.74797113 150.37841797 191.28076172 C150.45453308 192.10888367 150.53064819 192.93700562 150.60906982 193.79022217 C150.97668025 198.5740106 151.04050436 203.36443799 151.12890625 208.16015625 C151.14988373 209.16646088 151.17086121 210.1727655 151.19247437 211.20956421 C151.25633617 214.30632376 151.31575674 217.40314902 151.375 220.5 C151.41832198 222.63867793 151.46193991 224.77734988 151.50585938 226.91601562 C151.61147568 232.08978141 151.71311889 237.26361085 151.8125 242.4375 C152.58432617 241.66422363 153.35615234 240.89094727 154.15136719 240.09423828 C155.88681233 238.36165901 157.63280765 236.63956438 159.390625 234.9296875 C165.6765101 228.77246087 171.44643403 222.43105565 176.8125 215.4375 C177.22387207 214.90253906 177.63524414 214.36757812 178.05908203 213.81640625 C188.05493971 200.69565938 197.34858965 186.56375328 195.8125 169.4375 C194.84339074 165.81740797 193.49536646 163.12036646 190.8125 160.4375 C177.0304818 158.88146569 165.41806377 167.62170875 154.8125 175.4375 Z " fill="#E6E6E6" transform="translate(244.1875,-0.4375)"/>
<path d="M0 0 C2.875 1.4375 2.875 1.4375 5 4 C5.86113853 7.19591554 5.85547204 9.80176466 5 13 C1.43099803 18.0083044 -4.97978437 20.89673366 -10.09375 24.0859375 C-33.73386866 39.65537049 -47.35248627 64.64496612 -53.6875 91.75 C-56.58910821 106.30722085 -57.32818173 121.20231856 -58 136 C-56.68515625 136.38865234 -56.68515625 136.38865234 -55.34375 136.78515625 C-41.02098147 141.98887239 -27.78476219 155.08445872 -16.7890625 165.39453125 C-14.27104254 167.7467992 -11.71014887 170.03470597 -9.125 172.3125 C12.84076226 192.07457738 12.84076226 192.07457738 16 199 C16.13542347 203.06270398 15.61471496 205.04104467 13.4375 208.4375 C10.74346722 210.16444409 8.58551954 210.98694653 5.3515625 210.84765625 C-1.19541728 208.48769842 -6.43789543 201.00457863 -10.6875 195.75 C-13.18417926 192.78097602 -15.89221699 190.41701639 -18.83984375 187.91015625 C-21.10651996 185.90580785 -23.20363264 183.7942285 -25.3125 181.625 C-37.79271026 169.03848471 -61.24741759 147.2121334 -80.125 146.5625 C-84.0718029 146.62118757 -84.0718029 146.62118757 -86.4375 149.25 C-90.03888838 155.58844355 -89.89310629 163.35281983 -88.5390625 170.3984375 C-84.3337818 184.10270521 -75.02497352 196.12414208 -66 207 C-65.58008789 207.51159668 -65.16017578 208.02319336 -64.72753906 208.55029297 C-58.12377546 216.5712041 -51.13246518 224.06215529 -43.6953125 231.31884766 C-39.82095858 235.11003994 -36.19120781 239.01758148 -32.65454102 243.125 C-30.27265715 245.8242575 -27.71152505 248.31177145 -25.125 250.8125 C0.77479991 276.33470446 0.77479991 276.33470446 1.5 292.3125 C1.34724069 295.4859514 1.1199299 296.80331497 -0.5625 299.5625 C-3.84935332 301.50090068 -6.1805118 302 -10 302 C-12.75 300.6875 -12.75 300.6875 -15 298 C-15.40004179 296.59559798 -15.74750613 295.17588826 -16.0625 293.75 C-17.48121588 288.23094919 -20.36044533 284.28776736 -23.75 279.8125 C-24.25152588 279.14766602 -24.75305176 278.48283203 -25.26977539 277.79785156 C-28.34754686 273.83586661 -31.64360287 270.27413728 -35.23510742 266.77612305 C-37.02105069 264.97881536 -38.66965684 263.11260723 -40.31640625 261.1875 C-44.61056275 256.21266507 -49.26977981 251.62157543 -53.9375 247 C-54.81212891 246.12988281 -55.68675781 245.25976562 -56.58789062 244.36328125 C-58.72297449 242.23986451 -60.86037205 240.11883622 -63 238 C-63.77984021 240.83753242 -64.20506335 243.53496944 -64.43310547 246.46704102 C-64.50342987 247.34638809 -64.57375427 248.22573517 -64.64620972 249.13172913 C-64.71913239 250.07954758 -64.79205505 251.02736603 -64.8671875 252.00390625 C-65.03233335 254.04624166 -65.19770578 256.08855875 -65.36328125 258.13085938 C-65.61832378 261.32229157 -65.87121422 264.51385537 -66.11962891 267.70581055 C-67.076321 279.92712067 -68.26402204 292.00512086 -70.33300781 304.0925293 C-70.91012388 307.47347466 -71.41495523 310.85160474 -71.875 314.25 C-73.41907461 324.26117225 -75.73772098 334.1316224 -78 344 C-78.23235352 345.02222656 -78.46470703 346.04445313 -78.70410156 347.09765625 C-81.61095496 359.7486661 -84.96201393 371.90316779 -90.07910156 383.84667969 C-91.02048362 386.04789648 -91.92846576 388.26117912 -92.8359375 390.4765625 C-98.87657155 404.92325184 -106.760827 418.32354704 -116.44140625 430.640625 C-120.95146738 437.46788546 -121.94192663 446.94908908 -120.4609375 454.890625 C-119.74253077 457.31434062 -118.92179822 459.64721977 -118 462 C-117.5359375 463.485 -117.5359375 463.485 -117.0625 465 C-115.7247088 467.5181952 -114.63030835 467.99429387 -112 469 C-111.15308594 469.50080078 -111.15308594 469.50080078 -110.2890625 470.01171875 C-104.6078546 472.46452694 -96.99071269 472.25571159 -91.09130859 470.39941406 C-86.9967403 468.71259375 -83.16427971 466.54694093 -79.33105469 464.34033203 C-75.7403214 462.275698 -72.11006952 460.28418375 -68.47875977 458.29199219 C-66.58008654 457.24736427 -64.68698962 456.19251508 -62.80053711 455.12597656 C-50.71765141 448.39056554 -38.03195297 444.69843054 -24.203125 447.87109375 C-12.29851466 451.31708641 -5.03181871 457.89707127 3.40551758 466.57397461 C12.38730319 475.6216028 21.51844456 480.23752951 34.28125 480.37109375 C35.99828125 480.37302734 35.99828125 480.37302734 37.75 480.375 C38.87921875 480.39949219 40.0084375 480.42398437 41.171875 480.44921875 C52.54516052 480.48870932 60.13011685 477.58083243 68.359375 469.765625 C71.9641339 465.99022662 75.31370678 462.02364908 78.67700195 458.03393555 C86.2497847 449.09382785 95.14348089 441.33561751 107.27734375 439.69140625 C116.28470778 439.25492605 123.32795585 442.05179368 130.21875 447.875 C136.36859249 454.31769213 140.620107 462.30477132 145 470 C146.79788759 463.89574356 148.34399695 457.73846823 149.875 451.5625 C150.41525128 449.38799268 150.95561575 447.21351348 151.49609375 445.0390625 C151.75632324 443.99137695 152.01655273 442.94369141 152.28466797 441.86425781 C152.85992498 439.56087377 153.44262958 437.25991688 154.03515625 434.9609375 C155.70444688 428.44275505 157.24415598 421.91739808 158.66015625 415.33984375 C159.12007826 413.22637387 159.58077298 411.1130734 160.04153442 408.99978638 C160.34444396 407.59593386 160.64261095 406.19104871 160.9357605 404.78512573 C161.35200075 402.78900981 161.78402496 400.79684745 162.21875 398.8046875 C162.46560547 397.63921387 162.71246094 396.47374023 162.96679688 395.27294922 C164.11752126 391.62771975 165.68648947 389.02989098 168 386 C171.21102274 384.39448863 174.51699208 384.53192779 178 385 C180.5 386.4375 180.5 386.4375 182 389 C182.6108238 396.94070941 180.78365691 403.97965731 178.8125 411.625 C178.08048927 414.52728963 177.35656265 417.43157832 176.6328125 420.3359375 C176.33243324 421.53561157 176.33243324 421.53561157 176.02598572 422.75952148 C174.16591337 430.23058159 172.41829208 437.72643401 170.6796875 445.2265625 C170.0979504 447.72706242 169.51616306 450.22755065 168.93432617 452.72802734 C168.06088281 456.48333774 167.18999225 460.23914726 166.32705688 463.99688721 C165.51103249 467.54667138 164.68428112 471.09380819 163.85546875 474.640625 C163.4901857 476.24957138 163.4901857 476.24957138 163.11752319 477.89102173 C162.88304474 478.88636932 162.64856628 479.88171692 162.40698242 480.90722656 C162.20683029 481.77365784 162.00667816 482.64008911 161.80046082 483.53277588 C160.88109775 486.36648701 159.72050113 488.56858619 158 491 C153.15575676 493.22835189 149.34945548 493.24134843 144.328125 491.875 C133.42113686 487.77572929 128.51781474 479.32192415 122.875 469.6875 C120.28718875 465.28683701 117.6893572 461.3446786 113 459 C107.6664903 458.0666358 104.10234807 460.05267163 99.71875 462.83203125 C94.33871267 467.12214722 90.2453984 472.62364122 86 478 C76.93658788 489.33858965 65.4909153 496.52853675 51 499 C46.98163628 499.24231339 42.96247413 499.23107008 38.9375 499.25 C37.86822266 499.270625 36.79894531 499.29125 35.69726562 499.3125 C18.47943369 499.39572819 4.91033412 493.53171642 -7.3203125 481.68359375 C-9.47584822 479.52491585 -11.58713797 477.33667154 -13.6875 475.125 C-19.16931968 469.53569366 -26.14089261 465.97030879 -34 465.6875 C-47.38787188 465.94872677 -59.21117871 474.2298128 -70.265625 481 C-83.61262086 489.1060289 -96.8262963 492.5523195 -112.31640625 489.3046875 C-122.37936599 485.97369387 -130.23629044 479.47523905 -135.1875 470.0625 C-140.94967201 457.70171166 -141.12945192 444.35848584 -137.21875 431.4140625 C-134.2749176 423.36927914 -129.42556541 416.49001523 -124.5703125 409.49609375 C-118.74168108 401.04720068 -113.85281497 392.53561448 -110 383 C-109.48421387 381.72962891 -109.48421387 381.72962891 -108.95800781 380.43359375 C-90.9360494 335.19577404 -85.29063799 285.16500783 -82.1875 236.89038086 C-82.02307157 234.35565661 -81.80921175 231.83075754 -81.5859375 229.30078125 C-81.20243355 222.04971585 -80.9516651 217.21028352 -85.875 211.4375 C-86.69355469 210.58542969 -87.51210937 209.73335937 -88.35546875 208.85546875 C-101.2973623 194.88128236 -108.39568858 176.63937321 -108.2109375 157.7578125 C-107.67976087 148.29499924 -104.1843977 140.09736944 -97.37109375 133.3984375 C-93.11962811 130.02488472 -88.40842505 128.36875625 -83 128 C-80.66029706 128.28521172 -78.32464706 128.61067804 -76 129 C-75.96261719 127.71609375 -75.92523438 126.4321875 -75.88671875 125.109375 C-74.55545116 86.67498278 -65.0074035 52.87938671 -39 24 C-38.11054688 23.00226562 -38.11054688 23.00226562 -37.203125 21.984375 C-28.6681839 12.9424077 -13.11996671 -1.31199667 0 0 Z " fill="#010101" transform="translate(193,13)"/>
<path d="M0 0 C6.00093435 4.97360048 11.50318681 10.35357421 17 15.875 C17.86367187 16.73480469 18.72734375 17.59460938 19.6171875 18.48046875 C24.61942316 23.4903066 29.4267163 28.59588817 34 34 C34.81726563 34.9590625 35.63453125 35.918125 36.4765625 36.90625 C47.5535316 50.27917269 47.5535316 50.27917269 49.0625 57.3125 C49.69852783 60.93802343 49.69852783 60.93802343 51.6875 63 C54.85927812 64.37157973 57.58719939 64.19689234 61 64 C60.67 64.66 60.34 65.32 60 66 C59.83118197 68.70430579 59.71772668 71.39036879 59.640625 74.09765625 C59.58007371 75.84264755 59.51841391 77.58760064 59.45581055 79.33251953 C59.42305023 80.26404846 59.39028992 81.19557739 59.35653687 82.15533447 C55.77718819 179.8281829 55.77718819 179.8281829 39 211 C38.05640625 210.96519531 37.1128125 210.93039062 36.140625 210.89453125 C15.9644081 210.46912909 1.31641179 218.83278809 -15.79736328 228.58618164 C-25.36554986 234.00655607 -32.8581396 236.23127818 -44 235 C-49.44539886 233.36390141 -52.18647411 230.24160355 -54.9375 225.375 C-58.70350513 216.79970453 -58.89063053 207.87525253 -56 199 C-53.64093064 193.52182639 -50.17513947 188.79127531 -46.75 183.9375 C-37.81057725 171.20853934 -31.38653889 157.92611438 -25.91943359 143.38208008 C-25.3150017 141.81611035 -24.6830944 140.26042176 -24.02197266 138.7175293 C-20.83079104 131.22299341 -18.91232447 123.45608592 -17 115.5625 C-16.64697867 114.12172338 -16.29386917 112.68096835 -15.94067383 111.24023438 C-14.94575716 107.16359121 -13.97032892 103.08256519 -13 99 C-12.76716309 98.02659668 -12.53432617 97.05319336 -12.29443359 96.05029297 C-9.35690809 83.59894409 -7.72341003 71.0655065 -6.32543945 58.35571289 C-6 56 -6 56 -5.50871277 54.14584351 C-4.96462842 51.85079619 -4.72593936 49.66138426 -4.53515625 47.31079102 C-4.45837646 46.38625626 -4.38159668 45.4617215 -4.30249023 44.50917053 C-4.22329346 43.51743332 -4.14409668 42.52569611 -4.0625 41.50390625 C-3.93500366 39.96536232 -3.93500366 39.96536232 -3.80493164 38.39573669 C-3.53348813 35.11824008 -3.26629037 31.84041906 -3 28.5625 C-2.73357098 25.2881643 -2.46613355 22.01393031 -2.19506836 18.73997498 C-2.02646399 16.70346791 -1.86050747 14.66673948 -1.69750977 12.629776 C-1.62072998 11.70208908 -1.5439502 10.77440216 -1.46484375 9.81860352 C-1.399021 9.00682144 -1.33319824 8.19503937 -1.26538086 7.35865784 C-0.98495198 4.86625588 -0.52506985 2.45153385 0 0 Z " fill="#CBCBCB" transform="translate(129,250)"/>
<path d="M0 0 C1.00589172 0.00506058 1.00589172 0.00506058 2.03210449 0.01022339 C39.06226142 0.27839095 72.20016519 16.0112698 98.07861328 42.16235352 C127.91425192 73.44951555 140.01277359 116.03964335 147.8125 157.4375 C148.75609375 156.84582031 149.6996875 156.25414062 150.671875 155.64453125 C164.33281302 147.19005966 178.26187629 139.12737526 194.8125 142.4375 C201.45945225 144.47465699 206.01661124 148.69549569 209.8125 154.4375 C216.00124166 166.81498332 215.72754156 179.63449733 211.84375 192.6953125 C204.26966377 213.93345969 188.14609898 231.56529189 173 247.875 C172.49251221 248.42260986 171.98502441 248.97021973 171.4621582 249.53442383 C170.93195068 250.0992749 170.40174316 250.66412598 169.85546875 251.24609375 C169.27394043 251.87700928 168.69241211 252.5079248 168.09326172 253.15795898 C166.22853477 255.0216879 164.34928158 256.68633919 162.33251953 258.37524414 C154.60359213 265.06939261 150.42028183 270.1835029 149.59359741 280.54293823 C149.50680982 282.17574437 149.43955803 283.80968905 149.39041138 285.44406128 C149.28182393 289.00635055 149.02519935 292.55444918 148.78053284 296.10957336 C148.65267312 297.9900228 148.53217962 299.87098662 148.41880798 301.75236511 C147.75389243 312.5260365 146.34490464 323.18609715 144.875 333.875 C144.74603333 334.82439453 144.61706665 335.77378906 144.48419189 336.75195312 C142.92301016 348.20209267 141.26641457 359.6311666 139.1875 371 C138.91498413 372.55062134 138.91498413 372.55062134 138.63696289 374.13256836 C136.98785812 382.53883792 136.98785812 382.53883792 132.8125 385.4375 C129.9375 386.4375 129.9375 386.4375 126.8125 386.4375 C121.30600649 383.42451299 121.30600649 383.42451299 119.8125 380.4375 C119.07868566 372.49730452 120.60949341 364.83374847 122.0625 357.0625 C122.52748962 354.45226605 122.99022658 351.841752 123.44921875 349.23046875 C123.56555161 348.57158157 123.68188446 347.9126944 123.80174255 347.23384094 C125.65861842 336.68186735 127.24009092 326.11283947 128.55670166 315.4798584 C128.82063927 313.37251399 129.09644782 311.26691395 129.37255859 309.16113281 C132.66988241 283.50549705 133.18964023 257.91030957 133.18766785 232.08127975 C133.18755658 230.37011061 133.18841013 228.65894112 133.19026184 226.94777298 C133.21032938 208.37181573 133.22177028 189.89129626 130.8125 171.4375 C130.70768814 170.60116028 130.60287628 169.76482056 130.49488831 168.90313721 C129.19284516 158.56132368 127.26616158 148.46072144 124.875 138.3125 C124.63426758 137.28157227 124.39353516 136.25064453 124.14550781 135.18847656 C122.73464243 129.41573255 120.99015176 123.97657445 118.67749023 118.50048828 C117.98204646 116.84186568 117.38124168 115.14372504 116.8125 113.4375 C112.73109544 112.07703181 109.07020818 111.6742553 104.8125 112.4375 C100.27759125 116.20050939 99.18039242 119.64469866 98.3671875 125.38671875 C97.68968077 127.89158517 96.84770103 128.8534992 94.8125 130.4375 C91.4375 131.375 91.4375 131.375 87.8125 131.4375 C84.38508371 129.35124661 83.08768963 128.2630689 81.8125 124.4375 C81.21767254 115.81250184 82.89770815 109.33894505 88.5 102.625 C94.80494979 96.03241564 100.798436 93.85481778 109.8125 93.4375 C93.91233518 62.11374205 71.32943212 36.97986651 37.8125 24.4375 C32.55927572 22.72863522 27.22156228 21.53699274 21.8125 20.4375 C20.74644531 20.21191406 19.68039062 19.98632812 18.58203125 19.75390625 C6.12564047 17.46470896 -7.2437139 17.36230768 -19.64453125 20 C-24.13506695 20.77256528 -27.13771289 21.13735807 -31 18.5625 C-33.58016816 16.05605093 -34.10467964 15.18288327 -34.5 11.625 C-34.1038381 7.58414865 -33.03727362 6.29537203 -30.1875 3.4375 C-20.66057533 0.00934886 -10.00235746 -0.08029705 0 0 Z M154.8125 175.4375 C153.9153125 175.99759766 153.018125 176.55769531 152.09375 177.13476562 C149.47591211 179.28728909 149.47591211 179.28728909 149.52319336 182.70092773 C149.64650143 184.03091686 149.79576464 185.35864537 149.96484375 186.68359375 C150.10753246 188.21554082 150.24509539 189.74797113 150.37841797 191.28076172 C150.45453308 192.10888367 150.53064819 192.93700562 150.60906982 193.79022217 C150.97668025 198.5740106 151.04050436 203.36443799 151.12890625 208.16015625 C151.14988373 209.16646088 151.17086121 210.1727655 151.19247437 211.20956421 C151.25633617 214.30632376 151.31575674 217.40314902 151.375 220.5 C151.41832198 222.63867793 151.46193991 224.77734988 151.50585938 226.91601562 C151.61147568 232.08978141 151.71311889 237.26361085 151.8125 242.4375 C152.58432617 241.66422363 153.35615234 240.89094727 154.15136719 240.09423828 C155.88681233 238.36165901 157.63280765 236.63956438 159.390625 234.9296875 C165.6765101 228.77246087 171.44643403 222.43105565 176.8125 215.4375 C177.22387207 214.90253906 177.63524414 214.36757812 178.05908203 213.81640625 C188.05493971 200.69565938 197.34858965 186.56375328 195.8125 169.4375 C194.84339074 165.81740797 193.49536646 163.12036646 190.8125 160.4375 C177.0304818 158.88146569 165.41806377 167.62170875 154.8125 175.4375 Z " fill="#010101" transform="translate(244.1875,-0.4375)"/>
<path d="M0 0 C3.22960129 0.01073038 6.45864789 0.00005143 9.68823242 -0.01269531 C41.27248601 -0.03629701 41.27248601 -0.03629701 51.01831055 8.96777344 C59.99143102 19.08733682 59.80627173 28.71284803 59.34985352 41.69238281 C58.37249602 55.70028589 50.19301759 67.89919406 40.1706543 77.26074219 C25.4903771 88.33979698 10.03262879 92.27506447 -8.2590332 89.79589844 C-23.1566182 86.77708325 -35.12880633 79.1728975 -44.2199707 67.08105469 C-51.10067945 56.45418229 -54.14395479 47.16078289 -54.2668457 34.57324219 C-54.2771582 33.69410156 -54.2874707 32.81496094 -54.2980957 31.90917969 C-54.17680604 22.94722093 -52.16165713 15.61657797 -45.89575195 9.04980469 C-33.39813911 -1.77043478 -15.45974376 -0.06113824 0 0 Z " fill="#030202" transform="translate(303.829345703125,145.7392578125)"/>
<path d="M0 0 C0.928125 1.010625 1.85625 2.02125 2.8125 3.0625 C5.21618457 5.1395175 6.47113754 5.95818657 9.66796875 6.2109375 C12.48701049 5.93875416 15.2156247 5.51633333 18 5 C37.55463663 1.77185927 56.31654457 5.16697192 75 11 C72.24903043 12.51276334 69.9793502 13.30630564 66.8671875 13.67578125 C66.07022461 13.77858398 65.27326172 13.88138672 64.45214844 13.98730469 C63.17645996 14.14827637 63.17645996 14.14827637 61.875 14.3125 C36.28105255 17.89435015 10.05271968 26.88969663 -7 47.40625 C-25.57482992 72.70644937 -23.32782001 105.86216648 -23.60089111 135.68109131 C-23.64146079 139.8987975 -23.69230628 144.11637985 -23.7421875 148.33398438 C-23.83796282 156.55590377 -23.92266956 164.77788649 -24 173 C-25.2754108 172.05533077 -26.54918129 171.1084467 -27.82226562 170.16064453 C-28.88652771 169.37006149 -28.88652771 169.37006149 -29.97229004 168.56350708 C-32.64999361 166.49880918 -35.06397878 164.21787923 -37.5 161.875 C-48.53883203 151.54736828 -60.6639393 143.08478225 -74 136 C-74.71574967 115.24325971 -72.56401505 94.75396983 -66 75 C-65.69320312 74.06542969 -65.38640625 73.13085938 -65.0703125 72.16796875 C-60.8529038 60.61674757 -53.99031285 50.25111172 -46 41 C-45.39800781 40.25363281 -44.79601562 39.50726563 -44.17578125 38.73828125 C-36.4285712 29.43188427 -26.41546468 22.63079547 -16.14453125 16.375 C-13.90338268 15.04578259 -13.90338268 15.04578259 -12 13 C-11.53993654 10.79749008 -11.53993654 10.79749008 -11.375 8.375 C-11.25125 6.93125 -11.1275 5.4875 -11 4 C-7.37 2.68 -3.74 1.36 0 0 Z " fill="#CACACA" transform="translate(209,13)"/>
<path d="M0 0 C1.05176926 -0.00637985 2.10353851 -0.0127597 3.18717957 -0.01933289 C4.88563774 -0.02100212 4.88563774 -0.02100212 6.6184082 -0.02270508 C7.78998978 -0.02603348 8.96157135 -0.02936188 10.1686554 -0.03279114 C12.64921679 -0.03785441 15.129785 -0.04019965 17.61035156 -0.04003906 C21.38724155 -0.0422179 25.16383581 -0.06035918 28.94067383 -0.0793457 C31.35408429 -0.08228135 33.76749614 -0.084265 36.1809082 -0.08520508 C37.3030925 -0.09239059 38.42527679 -0.09957611 39.58146667 -0.10697937 C54.80710108 -0.06309898 54.80710108 -0.06309898 60.79418945 4.45776367 C64.21079712 9.2812098 63.37004216 15.55967752 62.73168945 21.14526367 C61.96268656 24.32613927 60.96958234 27.10211032 59.73168945 30.14526367 C55.16936092 28.43336661 51.13325818 26.13928672 46.9387207 23.68041992 C39.20911128 19.98037546 31.88802304 18.60983852 23.35668945 18.70776367 C22.44056885 18.71388672 21.52444824 18.72000977 20.58056641 18.72631836 C13.39799684 18.8915664 7.27916913 20.08559614 0.73168945 23.14526367 C-0.04561523 23.49202148 -0.82291992 23.8387793 -1.6237793 24.19604492 C-4.54189675 25.572716 -7.03581643 26.96303856 -9.58081055 28.95776367 C-10.13768555 29.34963867 -10.69456055 29.74151367 -11.26831055 30.14526367 C-14.26831055 29.14526367 -14.26831055 29.14526367 -15.44018555 27.08666992 C-16.48038881 23.3919857 -16.56015525 19.88714502 -16.51831055 16.08276367 C-16.52991211 15.0221875 -16.52991211 15.0221875 -16.54174805 13.94018555 C-16.52772747 10.20720715 -16.45434687 7.25094286 -14.26831055 4.14526367 C-9.56700591 0.80486301 -5.67907288 0.02344638 0 0 Z " fill="#4C4C4C" transform="translate(283.268310546875,163.854736328125)"/>
<path d="M0 0 C5.84205951 5.51059514 8.92505393 12.06407045 9.3984375 20.07421875 C9.08042362 23.44869934 7.67415563 25.11003359 5.1875 27.3125 C2.33425563 28.73912219 0.35295451 28.62283868 -2.8125 28.3125 C-5.82187747 26.70283298 -7.40565013 25.36574685 -8.6484375 22.1484375 C-9.13020764 20.55807801 -9.60940391 18.9669364 -10.0859375 17.375 C-10.72928473 15.17565979 -10.72928473 15.17565979 -12.5 13.25 C-15.98313116 11.8379198 -19.16653724 11.57315964 -22.8125 12.3125 C-26.02553333 14.40795652 -27.4764731 16.02576285 -28.453125 19.765625 C-28.76847469 21.5051346 -29.03919239 23.25351939 -29.2578125 25.0078125 C-29.90908116 27.7137879 -30.59608691 28.66045136 -32.8125 30.3125 C-35.49643434 31.30072687 -37.96551645 31.55621065 -40.8125 31.3125 C-43.8125 29.5625 -43.8125 29.5625 -45.8125 26.3125 C-47.17016127 18.82734096 -45.58949506 11.84146491 -41.8125 5.3125 C-37.25669645 -0.70808089 -31.49083539 -4.28399938 -24.3125 -6.4375 C-14.99247631 -7.36950237 -7.54962388 -5.89198907 0 0 Z " fill="#040404" transform="translate(284.8125,99.6875)"/>
<path d="M0 0 C1.70136097 1.28876934 3.37946188 2.61096733 5 4 C3.79841068 7.60476795 2.3993254 8.23802974 -0.87109375 9.94921875 C-1.92490234 10.46935547 -1.92490234 10.46935547 -3 11 C-3.71285156 11.37769531 -4.42570312 11.75539062 -5.16015625 12.14453125 C-14.25949101 16.44354918 -24.50800275 16.51131613 -34 13.3125 C-38.50483904 11.43380031 -42.19641281 9.04286975 -46 6 C-44.58711262 2.48647053 -43.13252331 1.14644101 -39.8125 -0.625 C-39.07644531 -1.02976563 -38.34039062 -1.43453125 -37.58203125 -1.8515625 C-25.12788414 -7.39092596 -11.92248405 -6.30994978 0 0 Z " fill="#ED4E6A" transform="translate(327,204)"/>
<path d="M0 0 C2.78577599 0.82296269 5.3211656 1.85192812 8 3 C7.01 3.66 6.02 4.32 5 5 C2.36718677 10.2056773 2.65576917 15.2287099 2.6875 20.9375 C2.69241455 21.96858887 2.6973291 22.99967773 2.70239258 24.06201172 C2.8868374 36.12564918 5.37961558 46.30828959 10.109375 57.453125 C10.55023438 58.71382812 10.55023438 58.71382812 11 60 C10.67 60.66 10.34 61.32 10 62 C-2.76194323 48.11314384 -14.39008863 32.39529423 -14.22265625 12.94921875 C-13.86292869 8.18440632 -12.29833693 5.1183392 -9.8125 1.0625 C-6.69710316 -0.76376711 -3.45755097 -0.47732562 0 0 Z " fill="#C9C9C9" transform="translate(117,159)"/>
</svg>
